<?xml version="1.0" encoding="utf-8"?>
<!-- Generator: Adobe Illustrator 27.7.0, SVG Export Plug-In . SVG Version: 6.00 Build 0)  -->
<svg version="1.1" id="icon" xmlns="http://www.w3.org/2000/svg" xmlns:xlink="http://www.w3.org/1999/xlink" x="0px" y="0px"
	 viewBox="0 0 800 800" style="enable-background:new 0 0 800 800;" xml:space="preserve">
<style type="text/css">
	.st0{fill:#2A2D2B;}
</style>
<path class="st0" d="M80.9,791.2c-3.1,0.5-5.4,1.1-7.7,1.2c-6.2,0.3-12.6,2.9-18.7-1.4c-1.5-1.1-4.8,0.5-6.9-0.2
	c-15.3-5.6-28.7-14.2-37.1-28.3C4.9,753,0.5,742.4,0.3,730.8c-0.2-9.1,0.3-18.1,3.9-26.6c0.5-1.1,0.1-2.6,0.1-2.9
	c2.5-3.7,4.8-6.8,6.9-10c2-3,3.2-6.7,5.7-9.1c3.5-3.5,8-6.2,11.9-9.4C38,665.2,47,657.4,56.3,650c3.8-3.1,8-5.7,12-8.6
	c2.2-1.6,4.4-3.2,6.6-4.9c2.8-2.2,5.8-4.2,8.5-6.6c0.9-0.8,1.2-2.3,1.3-2.5c3.2-2.1,6-3.7,8.5-5.7c4.8-3.7,9.5-7.5,14.1-11.4
	c4.7-4,9.2-8.4,14-12.4c2.7-2.2,6.1-3.7,8.9-5.9c8.4-6.4,16.7-13,25-19.6c9.7-7.6,19.5-15.2,29.2-22.8c8-6.3,15.8-12.8,23.7-19.1
	c19.3-15.2,38.7-30.2,58-45.5c15.9-12.5,31.6-25.3,47.4-37.9c16.3-12.9,32.6-25.9,49.3-38.3c9-6.7,19.7-9.6,31.1-10.2
	c19.9-1.2,36.5,5.9,51.6,18.3c22.2,18.3,44.8,36.2,67.4,54.1c22.9,18.2,46.1,36.2,69,54.4c19.5,15.4,38.8,31,58.2,46.5
	c21.1,16.8,42.4,33.4,63.5,50.2c10.8,8.6,21.6,17.2,32.4,25.8c11.9,9.5,23.9,18.9,35.8,28.4c4.6,3.7,10.3,6.7,13.4,11.4
	c5,7.6,9.7,15.6,12.2,24.7c2.7,9.7,3.8,19.5,1.6,29.3c-3,13.3-8.9,25.3-18.8,35.1c-9.4,9.3-20.5,15.6-33.3,18.2
	c-13,2.7-25.8,1.9-38.4-3.7c-13-5.7-22.8-15.6-33.9-23.7c-8.8-6.5-17.3-13.6-26-20.4c-7-5.5-14.1-10.9-21.1-16.4
	c-10-8.1-19.9-16.4-30-24.3c-12.9-10.2-26.1-19.9-39-30.2C546,666.3,534,656,521.6,646c-14.6-11.8-29.5-23.3-44.2-35
	c-15.4-12.1-30.7-24.3-46.1-36.4c-9.9-7.8-19.7-15.7-29.5-23.6c-2.2-1.8-4-1.8-6.3,0.1c-15.8,12.7-31.8,25.3-47.7,37.9
	c-17.2,13.6-34.4,27.1-51.5,40.7c-9.2,7.3-18,15.3-27.8,21.8c-6.2,4.1-11.1,9.5-17,13.9c-10.4,7.8-20.5,16-30.6,24.1
	c-16.5,13.1-32.9,26.4-49.4,39.5c-15.7,12.5-31.6,24.7-47.3,37.3c-4.4,3.5-7.7,8.4-12.4,11.3c-7.7,4.8-16.1,8.6-24.4,12.5
	C85.2,790.9,82.8,794,80.9,791.2z"/>
<path class="st0" d="M8.1,294.6c1-0.6,2.5-1.1,3.2-2.1c7.9-11,18.9-18.6,29-27.1c8.8-7.3,17.6-14.5,26.6-21.5
	c11.6-9.1,23.3-18.1,34.9-27.2c19.8-15.6,39.7-31.2,59.4-46.9c21.9-17.3,43.9-34.7,65.8-52.1c7.3-5.9,14.4-12.1,21.7-17.9
	c12.7-10,25.5-19.7,38.2-29.6c15.7-12.3,31-25,46.9-37.1c12.7-9.7,23.8-21.7,39-27.8c6.1-2.5,12.8-3.9,19.4-4.8
	c19.4-2.6,35.8,4.6,50.7,16.4c22.7,18,45.4,36,68,54c27.8,22.1,55.6,44.2,83.4,66.3c24.9,19.8,49.8,39.5,74.7,59.3
	c29.4,23.3,59,46.6,88.3,70.1c10.2,8.2,21.3,15.4,29.2,26.2c7,9.5,11.3,20.2,12.4,31.8c2.4,25.6-7.5,45.7-28.1,61
	c-9.1,6.7-19.5,9.8-30.4,11.6c-14.6,2.4-28.2-0.7-40.4-8.5c-7.4-4.7-14.1-10.5-21.1-15.9c-5.9-4.5-11.7-9-17.5-13.6
	c-9-7.2-18-14.5-27-21.7c-13.6-10.8-27.2-21.6-40.9-32.4c-11.2-8.8-22.5-17.6-33.7-26.5c-10.8-8.4-21.6-16.8-32.3-25.3
	c-11.3-9-22.5-18.3-33.8-27.2c-8.8-7-18-13.4-26.9-20.4c-5.6-4.4-10.7-9.5-16.3-14c-7.8-6.2-15.8-12-23.6-18.2
	c-6.6-5.2-13-10.5-19.5-15.8c-0.8-0.6-1.4-1.4-2.2-2.1c-6.3-5.7-6.3-5.7-12.9-0.4c-15.4,12.2-30.7,24.5-46.1,36.7
	c-17.6,14-35.3,28-53,42c-4.8,3.8-9.6,7.5-14.3,11.4c-13.7,11.4-28.1,21.9-41.9,33.1c-14.1,11.4-28.4,22.6-42.7,33.9
	c-17.5,13.9-34.9,27.7-52.4,41.5c-8.7,6.9-17.4,13.7-26.2,20.4c-5.1,3.9-9.9,8.3-15.4,11.5c-8.9,5.2-18.4,9.2-29.1,9.6
	c-8.3,0.3-16.5,0-24.3-2.8c-4.5-1.7-8.9-3.9-13.1-6.2c-14-7.9-23.8-19.8-29.3-34.5c-5.7-14.9-6.1-30.4,0.2-45.6
	c1.1-2.5,2.4-5,3.3-7.5C8.4,297.3,8.1,295.8,8.1,294.6z"/>
</svg>
