<?xml version="1.0" encoding="UTF-8"?>
<svg id="Layer_2" data-name="Layer 2" xmlns="http://www.w3.org/2000/svg" viewBox="0 0 664.69 277.4">
  <defs>
    <style>
      .cls-1 {
        fill: #cad3c7;
      }

      .cls-2 {
        fill: #c2cbbd;
      }
    </style>
  </defs>
  <g id="Layer_7" data-name="Layer 7">
    <path class="cls-2" d="m661.52,165.16c-2.35,7.93-4.46,15.72-5.74,23.83-1.07,6.83-2.32,13.54-5.3,19.99-5.39,11.68-12.56,23.21-23.32,31.94-11.61,9.43-25.28,17.01-38.59,24.54-7.05,3.99-14.1,7.99-21.18,11.94H0V52.36c1.24-.41,3.73-1.22,3.73-1.22l10.71-2.63,11.57-4.3,8.74-3.02,6.58-.69,4.39-1.73,10.7-5.26,8.8-4.71,10.75-2.52,14.47.41,5.56,4.74,9.73,5.55,9.73,3.19,9.36,2.54,10.71,3.84,11.62,2.43,9.12,2.3,10.8-2.31,18.17-8.9,22.85-2.66,8.7-8,5.86-4.11,9.26-4.81,10.33-3.78,10.96-6.03,10.99-5.13,15.24-4.97,1.78-.58,17.63,9.72,24.4,4.95,48.66,14.74,20.01,3.72,4.96.92,12.02.99,11.11,1.58s33.62,6.06,50.55,8.56c4.02.59,7.83,1.96,11.86,2.51,4.27.58,8.66.31,12.96.19,9.28-.28,18.61-.1,27.9-.1s17.93-.4,26.78.53c8.16.86,16.13,2.64,24.22,3.85,9.03,1.34,18.17,1.92,27.25,2.86,8.21.84,16.07,2.7,24.15,4.12,4.79.83,9.57,1.71,14.32,2.74,3,.64,6.22,1.13,8.83,2.64,4.76,2.76,8.9,8.86,11,13.27,2.92,6.13,3.54,13.16,4.1,19.71.66,7.67.67,15.37.62,23.05-.08,14.92,1.32,30.03-3.02,44.61Z"/>
    <path class="cls-1" d="m391.91,33.13c-.38,4.26-2.59,8.4-6.13,10.84-2.64,1.82-5.79,2.72-8.92,3.41-8.46,1.86-17.15,2.4-25.79,2.97-9.01.6-18.02,1.25-27.03,1.9-5.99.43-11.99.86-17.99,1.29-3.96.28-7.93.57-11.89.85l-14.22,1.02c.56-3.64,1.15-7.39,3.1-10.51.58-.92,1.29-1.84,1.33-2.93.04-1.08-1.05-2.25-2.03-1.79,1.55-.95,3.11-1.9,4.66-2.85-3.37-.29-6.73-.59-10.1-.88,4.65-3.41,9.3-6.81,13.94-10.21-4.13-.73-8.26-1.45-12.39-2.17-.42-.08-.85-.16-1.19-.41-.91-.68-.63-2.14.04-3.04.67-.91,1.65-1.62,2.05-2.67.71-1.86-1.16-4.14-3.12-3.81l4.89-5.73c.51-.59,1.04-1.24,1.12-2.01.2-1.81-2.02-3.9-2.81-5.82l1.78-.58,17.63,9.72,24.4,4.95,48.66,14.74,20.01,3.72Z"/>
  </g>
</svg>