<?xml version="1.0" encoding="UTF-8"?>
<svg id="Layer_2" data-name="Layer 2" xmlns="http://www.w3.org/2000/svg" viewBox="0 0 841.89 224.03">
  <defs>
    <style>
      .cls-1 {
        fill: #cad3c7;
      }

      .cls-2 {
        fill: #c2cbbd;
      }
    </style>
  </defs>
  <g id="layer6">
    <path class="cls-2" d="m841.89,224.03v-97.41h-177.32c-.02-2.02-.04-4.05-.03-6.07.05-7.68.04-15.38-.62-23.05-.56-6.55-1.18-13.58-4.1-19.71-2.1-4.41-6.24-10.51-11-13.27-2.61-1.51-5.83-2-8.83-2.64-4.75-1.03-9.53-1.91-14.32-2.74-8.08-1.42-15.94-3.28-24.15-4.12-9.08-.94-18.22-1.52-27.25-2.86-8.09-1.21-16.06-2.99-24.22-3.85-8.85-.93-17.88-.53-26.78-.53s-18.62-.18-27.9.1c-4.3.12-8.69.39-12.96-.19-4.03-.55-7.84-1.92-11.86-2.51-16.93-2.5-50.55-8.56-50.55-8.56l-11.11-1.58-12.02-.99-4.96-.92-20.01-3.72-48.66-14.74-24.4-4.95-17.63-9.72-1.78.58-15.24,4.97-10.99,5.13-10.96,6.03-10.33,3.78-9.26,4.81-5.86,4.11-8.7,8-22.85,2.66-18.17,8.9-10.8,2.31-9.12-2.3-11.62-2.43-10.71-3.84-9.36-2.54-9.73-3.19-9.73-5.55-5.56-4.74-14.47-.41-10.75,2.52-8.8,4.71-10.7,5.26-4.39,1.73-6.58.69-8.74,3.02-11.57,4.3-10.71,2.63s-2.49.81-3.73,1.22v171.67h841.89Z"/>
    <path class="cls-1" d="m391.91,33.13c-.38,4.26-2.59,8.4-6.13,10.84-2.64,1.82-5.79,2.72-8.92,3.41-8.46,1.86-17.15,2.4-25.79,2.97-9.01.6-18.02,1.25-27.03,1.9-5.99.43-11.99.86-17.99,1.29-3.96.28-7.93.57-11.89.85l-14.22,1.02c.56-3.64,1.15-7.39,3.1-10.51.58-.92,1.29-1.84,1.33-2.93.04-1.08-1.05-2.25-2.03-1.79,1.55-.95,3.11-1.9,4.66-2.85-3.37-.29-6.73-.59-10.1-.88,4.65-3.41,9.3-6.81,13.94-10.21-4.13-.73-8.26-1.45-12.39-2.17-.42-.08-.85-.16-1.19-.41-.91-.68-.63-2.14.04-3.04.67-.91,1.65-1.62,2.05-2.67.71-1.86-1.16-4.14-3.12-3.81l4.89-5.73c.51-.59,1.04-1.24,1.12-2.01.2-1.81-2.02-3.9-2.81-5.82l1.78-.58,17.63,9.72,24.4,4.95,48.66,14.74,20.01,3.72Z"/>
  </g>
</svg>