<?xml version="1.0" encoding="utf-8"?>
<!-- Generator: Adobe Illustrator 27.7.0, SVG Export Plug-In . SVG Version: 6.00 Build 0)  -->
<svg version="1.1" id="Layer_1" xmlns="http://www.w3.org/2000/svg" xmlns:xlink="http://www.w3.org/1999/xlink" x="0px" y="0px"
	 viewBox="0 0 614.4 618.4" style="enable-background:new 0 0 614.4 618.4;" xml:space="preserve">
<style type="text/css">
	.st0{fill:#373B38;}
	.st1{fill:#FFFFFF;}
</style>
<g>
	<path class="st0" d="M61.4,618.9c-34.2,0-61.9-27.8-61.9-61.9v-28.7c0-34,17.6-64.3,54-92.8c32.7-25.6,76.6-46.4,115.3-63.3
		c3.1-1,5.1-2,8.1-4.1c3-1.5,6.2-2.3,9.3-2.3c3.8,0,7.5,1.1,10.7,3.3c33.6,22.1,71.7,33.7,110.3,33.7c38,0,76.1-11.3,110.3-32.7
		c3.2-2.1,6.9-3.3,10.7-3.3c3.2,0,6.3,0.8,9.2,2.2c3,1,5.1,2.1,8.2,4.1c87.8,37.3,169.2,82,169.2,155v28.7
		c0,34.2-27.8,61.9-61.9,61.9H61.4z"/>
	<path class="st1" d="M186.2,366.3c3.6,0,7.2,1,10.4,3.2c32.8,21.5,70.7,33.8,110.6,33.8S385,391,417.8,370.6
		c3.3-2.2,6.9-3.2,10.4-3.2c3.1,0,6.2,0.8,9,2.2c3.1,1,5.1,2,8.2,4.1c81.9,34.8,169,79.9,169,154.6v28.7c0,33.8-27.6,61.4-61.4,61.4
		H61.4C27.6,618.4,0,590.7,0,556.9v-28.7c0-74.8,87-119.8,169-155.6c3.1-1,5.1-2,8.2-4.1C180,367.1,183.1,366.3,186.2,366.3
		 M186.2,365.3c-3.2,0-6.5,0.8-9.5,2.3l-0.1,0l-0.1,0c-3,2-4.9,3-8,4l0,0l0,0c-38.7,16.9-82.7,37.7-115.4,63.4
		C16.7,463.6-1,494.1-1,528.3v28.7c0,34.4,28,62.4,62.4,62.4H553c34.4,0,62.4-28,62.4-62.4v-28.7c0-34.2-17.7-64.7-54.1-93.1
		c-33.3-25.9-77-46.1-115.3-62.4c-3.1-2-5.2-3.1-8.3-4.1c-3-1.5-6.2-2.3-9.4-2.3c-3.9,0-7.7,1.2-11,3.4
		c-34.1,21.3-72.2,32.6-110,32.6c-38.5,0-76.5-11.6-110-33.6C193.8,366.5,190,365.3,186.2,365.3L186.2,365.3z"/>
</g>
<g>
	<path class="st0" d="M307.2,342.4c-84.4,0-153.1-76-153.1-169.5c0-93.5,68.7-169.5,153.1-169.5c84.4,0,153.1,76,153.1,169.5
		C460.3,266.4,391.6,342.4,307.2,342.4z"/>
	<path class="st1" d="M307.2,3.9C307.2,3.9,307.2,3.9,307.2,3.9c84.3,0,152.6,75.7,152.6,169c0,93.3-68.3,169-152.6,169
		c-84.3,0-152.6-75.6-152.6-169c0,0,0,0,0,0C154.6,79.6,222.9,3.9,307.2,3.9 M307.2,2.9L307.2,2.9L307.2,2.9
		c-41.1,0-79.6,17.7-108.6,49.8c-29,32.1-44.9,74.8-45,120.1c0,45.4,16,88.1,44.9,120.2c29,32.1,67.6,49.8,108.6,49.8
		c41,0,79.6-17.7,108.6-49.8c29-32.1,44.9-74.8,44.9-120.1c0-45.4-16-88-44.9-120.2C386.8,20.6,348.3,2.9,307.2,2.9L307.2,2.9z"/>
</g>
</svg>
