<?xml version="1.0" encoding="UTF-8"?>
<svg id="Layer_2" data-name="Layer 2" xmlns="http://www.w3.org/2000/svg" viewBox="0 0 841.27 259.92">
  <defs>
    <style>
      .cls-1 {
        fill: #b9c5b6;
      }

      .cls-2 {
        fill: #c5d1c1;
      }

      .cls-3 {
        fill: #b1b7b0;
      }
    </style>
  </defs>
  <g id="layer5">
    <g id="Layer_5" data-name="Layer 5">
      <path class="cls-1" d="m841.27,96.79c-1.83-.05-3.5-.12-4.51-.2-7.7-.63-12.87-5.04-18.89-8.76-5.28-3.26-10.18-5.13-16.27-7.09-2.86-.93-5.48-2.47-8.38-3.26-3.17-.84-6.87-1.03-10.17-1.26-3.44-.25-5.6-.86-8.54-2.32-2.25-1.11-4.85-1.41-7.37-1.73-1.44-.18-2.87-.38-4.3-.61-6.45-1.02-12.83-2.44-19.28-3.5-6.97-1.12-13.85-2.65-20.87-3.5-8.1-.96-16.71-2.73-24.11-5.67-6.29-2.51-13.07-4.29-19.6-6.33-6.81-2.11-19.63-11.73-19.63-11.73l-2,.92-4.21-3.34s-.13.1-.35.29c-1.61,1.27-8.22,6.41-10.86,6.18-.07-.01-.13-.01-.2-.02-3.65-.34-7.07-1.41-10.73-1.78-4.25-.43-7.95-1.15-11.98-2.31-2.92-.85-5.79-1.06-8.79-1.52-3.51-.53-6.59-1.9-9.85-3.07-.02-.01-.03-.01-.05-.02-5.38-1.93-10.86-3.81-16.34-5.58-1.7-.56-3.39-1.1-5.08-1.64-7.46-2.34-15-4.54-22.24-7.35-7.09-2.74-13.08-6.84-20-9.85-5.57-2.42-11.69-3.82-16.99-6.71-3.27-1.78-13.72-4.13-16.9-4.83-.04-.01-.07-.02-.11-.03-.52-.11-.82-.17-.82-.17,0,0-.11.4-.33,1.03-.44,1.25-1.35,3.44-2.82,5.15-2.23,2.58-4.33,5.36-7.03,7.6-2.8,2.33-5.33,5.1-8.32,7.22-1.43,1.02-2.56,1.85-3.71,3.14-2.15,2.4-5.18,4.02-7.54,6.32-4.33,4.21-10.95,6.3-16.15,9.76-5.57,3.72-11.82,6.83-18.05,9.67-2.41,1.11-4.88,2.29-7.32,3.32-3.15,1.33-5.23-2.08-5.23-2.08,0,0-8.98,1.64-11.83,3.32-6.1,3.62-13.11,5.95-19.56,9.09-2.25,1.1-4.66,1.91-7.12,2.6-3.52.99-6.34,3.08-9.72,4.25-6.72,2.31-14.1,1.16-21.02,2.73-6.28,1.41-12.2,4.1-18.24,6.09-6.25,2.06-11.61,4.56-15.94,9.06-2.25,2.33-7.06,3.28-7.06,3.28l-6.24-2.7-6.62-2.67-5.09.96-10.17,5.66-8.46,3.37-1.35-.14v163.88h564.34V96.79Z"/>
    </g>
    <g>
      <path class="cls-2" d="m620.42,55.49c12.6,7.41,10.77,7.11,23.38,14.52-4.66-.01-40.12,15.53-44.59,14.25,1.33.5,2.2,2.01,1.98,3.41-3.81-.84-7.92-.27-11.37,1.56,2.33,4.71,8.19,6.27,13.38,7.08,5.19.81,11.01,1.71,14.15,5.92l-12.48,3.03c2.18,1.14,4.37,2.27,6.56,3.41-5.78-.72-11.6-1.44-17.4-.97,8,1.53,15.82,4.01,23.25,7.36,1.29.58,2.65,1.26,3.34,2.5.97,1.72.32,3.89-.49,5.7-5.09,11.51-15.23,20.2-26.43,25.95-11.2,5.75-23.53,8.89-35.73,11.98-4.28,1.08-8.57,2.17-12.95,2.69-6.16.74-12.38.37-18.57,0l-13.05-.78c-4.13-.25-9.54-1.78-9.48-5.92.05-3.06,3.42-5.27,3.6-8.33-2.56-1.7-4.85-3.8-6.75-6.22,2.59-1.52,4.98-3.4,7.09-5.55.46-.47.92-.98,1.11-1.61.63-2-1.58-3.64-3.37-4.75l-11.6-18.71,9.58-1.74c1.86-.3,4.21-.01,5.22-1.61.66-1.08.32-2.47-.1-3.67-1.47-4.29-3.5-8.4-6.02-12.18,8.15.66,16.35.7,24.51.13,1.82-3.6-1.11-7.69-3.79-10.71s-5.45-7.31-3.36-10.76c-5.51-.47-10.76-3.48-13.96-8,3.27-.18,5.55-3.4,6.42-6.55.88-3.14.89-6.53,2.19-9.53-2.95-2.86-5.9-5.73-8.85-8.59,7.33.37,14.67.74,22,1.12-7.63-6.8-13.75-15.29-17.77-24.69-1.22-2.83-2.23-5.74-3.49-8.56-.8-1.8-2.93-4.33-3.61-6.41,3.18.7,13.63,3.05,16.9,4.83,5.3,2.89,11.42,4.29,16.99,6.71,6.92,3.01,12.91,7.11,20,9.85,7.24,2.81,14.78,5.01,22.24,7.35,1.69.54,3.38,1.08,5.08,1.64,5.48,1.77,10.96,3.65,16.34,5.58.02.01.03.01.05.02,3.26,1.17,6.34,2.54,9.85,3.07,3,.46,5.87.67,8.79,1.52,4.03,1.16,7.73,1.88,11.98,2.31,3.66.37,8.96,1.14,12.61,1.48-.44.16-23.38,10.86-23.38,10.86Z"/>
      <path class="cls-2" d="m823.32,125.49c.99.33,1.23,1.73.72,2.64s-1.5,1.43-2.43,1.89c-2.38,1.2-4.1,3.95-6.77,3.99-4.18.05-8.36.59-12.42,1.59-1.14.28-2.57,1.19-2.07,2.25-9.18-7.48-19.47-13.58-30.44-18.03l1.83,2.31c-8.57-5.62-17.62-10.52-27-14.65-1.16-.51-2.43-1.11-2.9-2.28,1.31-.15,2.61-.29,3.92-.44-8.98-4.61-17.99-9.24-26.23-15.07-2.17-1.53-4.32-3.17-6.81-4.08-2.77-1.02-5.87-1.12-8.43-2.58,5.15,6,10.03,12.22,14.64,18.65-6.58-2.62-13.17-5.23-19.75-7.85,5.75,9.23,11.5,18.45,17.25,27.68-4.06-1.17-8.29-1.75-12.51-1.71,3.54,4.32,7.86,8,12.69,10.81,1.79,1.04,3.81,2.17,4.38,4.15-2.02-.34-4.05-.68-6.07-1.03,6.3,3.75,12.46,7.7,18.48,11.87.97.67,2.05,1.67,1.72,2.79-.38,1.29-2.16,1.36-3.49,1.16-6.54-.98-13.08-1.96-19.62-2.94-2.95-.45-5.91-.89-8.78-1.74-4.81-1.41-9.55-2.95-14.56-3.05-3.79-.07-7.55-1.04-10.9-2.82-.98-.52-1.93-1.12-3-1.43-1.88-.56-3.9-.2-5.86-.14-1.96.07-4.15-.3-5.36-1.85-.58-.75-1.1-1.84-2.04-1.76-.48.05-.85.4-1.22.7-1.78,1.45-3.94,1.98-6.13,1.28l6.03-8.61c.93-1.33,1.91-2.89,1.51-4.47-.13-.54-.42-1.02-.55-1.56-.45-1.84,1.01-3.51,2.19-4.99,2.2-2.74,2.77-6.56,4.47-9.64.54-.98,1.09-1.98,1.25-3.09s-.16-2.35-1.06-3.01c-.22-.16-.5-.33-.53-.6-.04-.3.25-.54.5-.71,1.78-1.2,3.45-2.57,4.98-4.08.16-.16.33-.37.27-.59-.04-.16-.2-.26-.35-.35-5.16-2.94-16.77-11.41-17.07-12.57-.12-.47,5.52-1.29,7.57-2-4.23-1.81-12.07-8.03-12.18-8.4-.18-.6,8.12-14.69,7.74-14.83,0,0-4.01-6.56-6.95-9.12,2.12.33,4.29.32,6.4-.03-2.96-1.77-5.05-8.68-5.05-8.68l4.21,3.34,2-.92s12.82,9.62,19.63,11.73c6.53,2.04,13.31,3.82,19.6,6.33,7.4,2.94,16.01,4.71,24.11,5.67,7.02.85,13.9,2.38,20.87,3.5,6.45,1.06,12.83,2.48,19.28,3.5,3.03,2.94,5.99,5.96,8.95,8.97,9.45,2.75,18.43,7.11,26.43,12.83,2.4,1.72,4.86,3.8,5.44,6.69-3.82-.27-7.63-.54-11.45-.8,10.39,8.7,21.75,16.25,33.79,22.46.58.3,1.19.63,1.46,1.22.85,1.88-2.29,2.84-4.33,2.5Z"/>
    </g>
    <path class="cls-1" d="m270.1,74.64l-3.98-.4-13.81-12.2-3.21,2.01-9.54-.93-7.57.08-11.41-5.78-1.81-.06-8.83-5.59-.51-.32-9.67,9.56-.16-.08-10.65-5.37-6.45-4.72-.36-.26-6.84-2.54-10.23-1.37-2.93-.39-.04.04-5.53,5.64-6.57,2.36-7.8,2.22-11.74,5.38-11.33,8.08-8.71,1.53-7.1,3.05-9.11,4.26-8.67-1.93-8.31,2.8-11.28-1.47-20.94-5.29-7.28,1.37-11.42,1.39-8.34,2.3-10.25-1.96s-5.48-.04-7.72,1.12v180.98h270.1V74.64Z"/>
    <path class="cls-2" d="m256.44,131.39c-10.69.9-21.6-.96-31.39-5.35-6.18-2.78-12.46-6.64-19.18-5.77-4.61.6-9.2,3.41-13.61,1.94-2.01-.68-3.63-2.17-5.18-3.63-6.13-5.74-12.25-11.48-18.38-17.22-1.14-1.07-2.34-2.82-1.31-3.99.57-.65,1.53-.7,2.38-.7,5.51-.04,11.01-.08,16.51-.12-5.3-4.58-17.9-17.91-21.53-23.91,2.96.59,6.09.29,8.88-.83-3.4-4.93-6.8-9.87-10.2-14.8,2.08.94,4.44,1.25,6.69.87-3.09-3.43-5.96-7.36-7.83-11.5l.04-.04,2.93.39,10.23,1.37,6.84,2.54.36.26,17.26,10.17-3.97,2.86c4.76,5.26,21.43,17.82,21.43,17.82-2.16,1.48-3.16,5.38-4.08,7.83,10.53,4.94,27.31,8.02,36.04,15.7-5.09-.23-10.17-.46-15.26-.69,7.72,2.51,14.77,7.03,20.27,13-5.89-1.27-11.95-1.77-17.97-1.5,7.86,3.21,14.85,8.55,20.03,15.29Z"/>
    <path class="cls-3" d="m239.87,72.7c-2.67-.41-5.05-1.91-7.68-2.51-1.7-.39-3.53-.42-5.06-1.25,1.3.78,4.33,3.3,4.23,3.69-1.57-.42-2.97-1.27-4.39-2.05-2.39-1.31-4.88-2.44-7.45-3.37-1.41-.52-2.89-1-4.04-1.97,1.11-.31,2.3-.29,3.4.05-2.98-2.05-4.59-8.05-7.92-9.45.64-.04,1.28-.12,1.92-.22-.41,0-1.68-1.82-1.9-2.13-.33-.46-1.27-1.38-1.35-1.97l9.34,5.91,1.81.06c1.84,1.07,2.2,6.18,4.25,6.7,2.43.63,5.01.77,7.29,1.84-2.18.07-4.36-.08-6.5-.45,2.87,1.18,5.74,2.37,8.62,3.55,1.75.73,5.57,3.24,5.43,3.57Z"/>
  </g>
</svg>